<svg width="94" height="50" viewBox="0 0 94 50" fill="none" xmlns="http://www.w3.org/2000/svg">
    <path
        d="M46.9824 0C52.3397 0 57.4856 0.17618 62.3847 0.493305C67.1781 0.81043 71.5486 1.47992 75.5313 2.46653C79.3378 3.4179 82.6862 4.82734 85.5058 6.73009C88.1845 8.52713 90.3345 11.0289 91.7443 13.9183C93.2598 17.019 94 20.8598 94 25.5109C94 30.2326 93.1189 34.4961 91.2861 38.2312C89.5238 41.8957 87.1271 44.7851 84.0607 46.8992C81.1001 48.9782 77.5403 50.0352 73.91 50C71.5133 50 69.3633 49.6829 67.4248 49.0134C65.5216 48.3439 63.6535 47.4982 61.9265 46.4412C60.27 45.4193 58.6134 44.327 57.0274 43.1642C55.5118 42.0719 53.961 41.0853 52.3397 40.2044C50.7184 39.2882 48.8856 38.8302 47.0176 38.7949C45.2553 38.7949 43.4931 39.253 41.6955 40.2044C40.2152 41.0148 38.6292 42.0014 37.0079 43.1642C35.4923 44.2565 33.871 45.3488 32.0735 46.4412C30.3465 47.4982 28.5137 48.3791 26.5752 49.0134C24.6367 49.6829 22.4867 50 20.09 50C16.4597 50.0705 12.8999 48.9782 9.90401 46.8992C6.83765 44.7851 4.44095 41.8605 2.67867 38.2312C0.88114 34.4961 0 30.2326 0 25.5109C0 20.895 0.704912 17.0543 2.25572 13.9535C3.66554 11.0641 5.81552 8.56237 8.49419 6.76533C11.3138 4.86258 14.6269 3.45314 18.4687 2.50176C22.8039 1.44468 27.1744 0.775194 31.6153 0.528541C36.5144 0.17618 41.625 0.0352361 46.9824 0.0352361"
        fill="#1B1B1B" />
    <path
        d="M64.3936 18.323L62.2437 16.4907C61.6445 15.9974 60.7986 16.0327 60.3052 16.6317L52.9741 25.335C52.4806 25.934 52.5159 26.7797 53.0798 27.273L55.1593 29.211C58.1199 31.7832 62.5961 31.4308 65.1338 28.4358C67.6715 25.4407 67.2838 20.8953 64.3231 18.3583L64.3936 18.323ZM57.0626 27.0968L55.9699 26.1102L61.5387 19.4858L62.6314 20.4372C64.4641 22.0228 64.6756 24.7712 63.1248 26.6035C61.574 28.4358 58.8601 28.6472 57.0273 27.0968H57.0626Z"
        fill="#EEEDED" />
    <path
        d="M62.7725 21.9521C62.6668 21.7055 62.4201 21.5293 62.1734 21.5293C62.1029 21.5293 61.9971 21.5293 61.9266 21.5645C61.7504 21.635 61.6447 21.7407 61.5742 21.9169C61.5037 22.0931 61.5037 22.2693 61.5742 22.4102C61.8914 23.2206 61.7504 24.172 61.1865 24.8415C60.7283 25.37 60.0939 25.6872 59.389 25.6872C59.248 25.6872 59.0717 25.6872 58.9308 25.6519C58.8955 25.6519 58.8603 25.6519 58.7898 25.6519C58.4726 25.6519 58.1906 25.8633 58.1554 26.1805C58.0849 26.5328 58.3316 26.8852 58.684 26.9557C58.9308 26.9909 59.1422 27.0261 59.389 27.0261C60.4816 27.0261 61.5037 26.5328 62.2086 25.6872C63.0897 24.6301 63.3012 23.1854 62.8078 21.9169L62.7725 21.9521Z"
        fill="#EEEDED" />
    <path
        d="M17.799 19.0629C18.5391 19.0629 19.1735 18.4286 19.1735 17.6887C19.1735 16.9487 18.5744 16.3145 17.799 16.3145H11.6662C10.9261 16.3145 10.3269 16.9487 10.3269 17.6887V29.2109C10.3269 29.9861 10.9261 30.5851 11.6662 30.5851C12.4064 30.5851 13.0408 29.9861 13.0408 29.2109V24.8768H17.8342C18.5744 24.8768 19.2088 24.2778 19.2088 23.5026C19.2088 22.7274 18.6096 22.1284 17.8342 22.1284H13.0408V19.0981H17.8342L17.799 19.0629Z"
        fill="#EEEDED" />
    <path
        d="M27.9495 16.3853C24.0725 16.3853 20.9004 19.5917 20.9004 23.5029C20.9004 27.4141 24.0725 30.6559 27.9495 30.6559C31.8265 30.6559 34.9986 27.4494 34.9986 23.5382C34.9986 19.627 31.8618 16.3853 27.9495 16.3853ZM27.9495 27.8722C25.5881 27.8722 23.6495 25.9342 23.6495 23.5029C23.6495 21.0717 25.5881 19.1689 27.9495 19.1689C30.311 19.1689 32.2495 21.1069 32.2495 23.5029C32.2495 25.899 30.311 27.8722 27.9495 27.8722Z"
        fill="#EEEDED" />
    <path
        d="M43.8809 16.3853C40.0039 16.3853 36.8318 19.5917 36.8318 23.5029C36.8318 27.4141 40.0039 30.6559 43.8809 30.6559C47.7579 30.6559 50.93 27.4494 50.93 23.5382C50.93 19.627 47.7932 16.3853 43.8809 16.3853ZM43.8809 27.8722C41.5195 27.8722 39.5809 25.9342 39.5809 23.5029C39.5809 21.0717 41.5195 19.1689 43.8809 19.1689C46.2424 19.1689 48.1809 21.1069 48.1809 23.5029C48.1809 25.899 46.2776 27.8722 43.8809 27.8722Z"
        fill="#EEEDED" />
    <path
        d="M76.659 16.3853C72.782 16.3853 69.6099 19.5917 69.6099 23.5029C69.6099 27.4141 72.782 30.6559 76.659 30.6559C80.536 30.6559 83.7081 27.4494 83.7081 23.5382C83.7081 19.627 80.5712 16.3853 76.659 16.3853ZM76.659 27.8722C74.2975 27.8722 72.359 25.9342 72.359 23.5029C72.359 21.0717 74.2975 19.1689 76.659 19.1689C79.0204 19.1689 80.9589 21.1069 80.9589 23.5029C80.9589 25.899 79.0557 27.8722 76.659 27.8722Z"
        fill="#EEEDED" />
</svg>